<svg xmlns="http://www.w3.org/2000/svg" style="display: none;">
  <symbol id="search-icon" viewBox="0 0 24 24" fill="none" stroke="currentColor" stroke-width="2" 
          stroke-linecap="round" stroke-linejoin="round" class="icon icon-tabler icons-tabler-outline icon-tabler-search">
    <path stroke="none" d="M0 0h24v24H0z" fill="none"/>
    <path d="M10 10m-7 0a7 7 0 1 0 14 0a7 7 0 1 0 -14 0" />
    <path d="M21 21l-6 -6" />
  </symbol>

  <symbol id="main-logo" viewBox="0 0 24 24" fill="none">
    <path stroke="#000000" stroke-linejoin="round" stroke-width="1" d="M1.5 9 6 3l6 -0.5 6 0.5 4.5 6L12 21.5 1.5 9Z" />
    <path stroke="#000000" stroke-linejoin="round" stroke-width="1" d="M1.5 9h21" />
    <path stroke="#000000" stroke-linejoin="round" stroke-width="1" d="M6 3v6l6 12.5L18 9V3" />
    <path stroke="#000000" stroke-linejoin="round" stroke-width="1" d="m6 9 6 -6.5L18 9" />
  </symbol>

  <symbol id="profile-icon" viewBox="0 0 24 24" fill="none" stroke="currentColor" stroke-width="2" 
          stroke-linecap="round" stroke-linejoin="round">
    <path stroke="none" d="M0 0h24v24H0z" fill="none"/>
    <path d="M8 7a4 4 0 1 0 8 0a4 4 0 0 0 -8 0" />
    <path d="M6 21v-2a4 4 0 0 1 4 -4h4a4 4 0 0 1 4 4v2" />
  </symbol>

  <symbol id='hamburger-icon' width="24"  height="24"  viewBox="0 0 24 24"  fill="none"  stroke="currentColor"  stroke-width="2"  stroke-linecap="round"  stroke-linejoin="round"  class="icon icon-tabler icons-tabler-outline icon-tabler-menu-2">
  <path stroke="none" d="M0 0h24v24H0z" fill="none"/><path d="M4 6l16 0" /><path d="M4 12l16 0" /><path d="M4 18l16 0" />
  </symbol>
</svg>
