<svg xmlns="http://www.w3.org/2000/svg" style="display: none;">
  <symbol id="search-icon" viewBox="0 0 24 24" fill="none" stroke="currentColor" stroke-width="2" 
          stroke-linecap="round" stroke-linejoin="round" class="icon icon-tabler icons-tabler-outline icon-tabler-search">
    <path stroke="none" d="M0 0h24v24H0z" fill="none"/>
    <path d="M10 10m-7 0a7 7 0 1 0 14 0a7 7 0 1 0 -14 0" />
    <path d="M21 21l-6 -6" />
  </symbol>

  <symbol id="main-logo" viewBox="0 0 24 24" fill="none">
    <path stroke="#000000" stroke-linejoin="round" stroke-width="1" d="M1.5 9 6 3l6 -0.5 6 0.5 4.5 6L12 21.5 1.5 9Z" />
    <path stroke="#000000" stroke-linejoin="round" stroke-width="1" d="M1.5 9h21" />
    <path stroke="#000000" stroke-linejoin="round" stroke-width="1" d="M6 3v6l6 12.5L18 9V3" />
    <path stroke="#000000" stroke-linejoin="round" stroke-width="1" d="m6 9 6 -6.5L18 9" />
  </symbol>

  <symbol id="profile-icon" viewBox="0 0 24 24" fill="none" stroke="currentColor" stroke-width="2" 
          stroke-linecap="round" stroke-linejoin="round">
    <path stroke="none" d="M0 0h24v24H0z" fill="none"/>
    <path d="M8 7a4 4 0 1 0 8 0a4 4 0 0 0 -8 0" />
    <path d="M6 21v-2a4 4 0 0 1 4 -4h4a4 4 0 0 1 4 4v2" />
  </symbol>

  <symbol id='hamburger-icon' viewBox="0 0 24 24"  fill="none"  stroke="currentColor"  stroke-width="2"  stroke-linecap="round"  stroke-linejoin="round"  class="icon icon-tabler icons-tabler-outline icon-tabler-menu-2">
  <path stroke="none" d="M0 0h24v24H0z" fill="none"/><path d="M4 6l16 0" /><path d="M4 12l16 0" /><path d="M4 18l16 0" />
  </symbol>

  <symbol id='cart-icon' viewBox="0 0 24 24"  fill="none"  stroke="currentColor"  stroke-width="2"  stroke-linecap="round"  stroke-linejoin="round">
  <path stroke="none" d="M0 0h24v24H0z" fill="none"/>
  <path d="M6 19m-2 0a2 2 0 1 0 4 0a2 2 0 1 0 -4 0" />
  <path d="M17 19m-2 0a2 2 0 1 0 4 0a2 2 0 1 0 -4 0" />
  <path d="M17 17h-11v-14h-2" /><path d="M6 5l14 1l-1 7h-13" />
  </symbol>
  <symbol id='shirt-icon' viewBox="0 0 24 24"  fill="currentColor">
 <path stroke="none" d="M0 0h24v24H0z" fill="none"/><path d="M14.883 3.007l.095 -.007l.112 .004l.113 .017l.113 .03l6 2a1 1 0 0 1 .677 .833l.007 .116v5a1 1 0 0 1 -.883 .993l-.117 .007h-2v7a2 2 0 0 1 -1.85 1.995l-.15 .005h-10a2 2 0 0 1 -1.995 -1.85l-.005 -.15v-7h-2a1 1 0 0 1 -.993 -.883l-.007 -.117v-5a1 1 0 0 1 .576 -.906l.108 -.043l6 -2a1 1 0 0 1 1.316 .949a2 2 0 0 0 3.995 .15l.009 -.24l.017 -.113l.037 -.134l.044 -.103l.05 -.092l.068 -.093l.069 -.08c.056 -.054 .113 -.1 .175 -.14l.096 -.053l.103 -.044l.108 -.032l.112 -.02z" />
 </symbol>

 <symbol id='chess-icon' viewBox="0 0 24 24" fill="currentColor">
 <path stroke="none" d="M0 0h24v24H0z" fill="none"/><path d="M8.959 1.99l-.147 .028l-.115 .029a1 1 0 0 0 -.646 1.27l.749 2.245l-2.815 1.735a2 2 0 0 0 -.655 2.751l.089 .133a2 2 0 0 0 1.614 .819l1.563 -.001l-1.614 4.674a1 1 0 0 0 .945 1.327h7.961a1 1 0 0 0 1 -.978l.112 -5c0 -3.827 -1.555 -6.878 -4.67 -7.966l-2.399 -.83l-.375 -.121l-.258 -.074l-.135 -.031l-.101 -.013l-.055 -.001l-.048 .003z" /><path d="M18 18h-12a1 1 0 0 0 -1 1a2 2 0 0 0 2 2h10a2 2 0 0 0 1.987 -1.768l.011 -.174a1 1 0 0 0 -.998 -1.058z" />
 </symbol>

 <symbol id='tree-icon' viewBox="0 0 24 24" fill="currentColor"> <path stroke="none" d="M0 0h24v24H0z" fill="none"/><path d="M15 19v1a2 2 0 0 1 -2 2h-2a2 2 0 0 1 -2 -2v-1zm-10 -1c-.89 0 -1.337 -1.077 -.707 -1.707l2.855 -2.857l-1.464 -.487a1 1 0 0 1 -.472 -1.565l.08 -.091l3.019 -3.02l-.758 -.379a1 1 0 0 1 -.343 -1.507l.083 -.094l4 -4a1 1 0 0 1 1.414 0l4 4a1 1 0 0 1 -.26 1.601l-.759 .379l3.02 3.02a1 1 0 0 1 -.279 1.61l-.113 .046l-1.465 .487l2.856 2.857c.603 .602 .22 1.614 -.593 1.701l-.114 .006z" />
 </symbol>
 <symbol id='candle-icon' viewBox="0 0 24 24"  fill="currentColor" >
 <path stroke="none" d="M0 0h24v24H0z" fill="none"/><path d="M14 9a2 2 0 0 1 2 2v10a1 1 0 0 1 -1 1h-6a1 1 0 0 1 -1 -1v-10a2 2 0 0 1 2 -2z" /><path d="M11.254 1.334a1 1 0 0 1 1.491 0l1.452 1.623a3 3 0 0 1 -4.196 4.28c-1.195 -1.07 -1.339 -2.889 -.297 -4.166z" />
 </symbol>

 <symbol id='fire-icon' viewBox="0 0 24 24"  fill="currentColor">
 <path stroke="none" d="M0 0h24v24H0z" fill="none"/><path d="M10 2c0 -.88 1.056 -1.331 1.692 -.722c1.958 1.876 3.096 5.995 1.75 9.12l-.08 .174l.012 .003c.625 .133 1.203 -.43 2.303 -2.173l.14 -.224a1 1 0 0 1 1.582 -.153c1.334 1.435 2.601 4.377 2.601 6.27c0 4.265 -3.591 7.705 -8 7.705s-8 -3.44 -8 -7.706c0 -2.252 1.022 -4.716 2.632 -6.301l.605 -.589c.241 -.236 .434 -.43 .618 -.624c1.43 -1.512 2.145 -2.924 2.145 -4.78" />
 </symbol>
</svg>
